<!DOCTYPE svg PUBLIC "-//W3C//DTD SVG 1.1//EN" "http://www.w3.org/Graphics/SVG/1.1/DTD/svg11.dtd">
<!-- Uploaded to: SVG Repo, www.svgrepo.com, Transformed by: SVG Repo Mixer Tools -->
<svg fill="#D8B74C" version="1.1" id="Capa_1" xmlns="http://www.w3.org/2000/svg" xmlns:xlink="http://www.w3.org/1999/xlink" width="800px" height="800px" viewBox="0 0 104.262 104.262" xml:space="preserve">
<g id="SVGRepo_bgCarrier" stroke-width="0"/>
<g id="SVGRepo_tracerCarrier" stroke-linecap="round" stroke-linejoin="round"/>
<g id="SVGRepo_iconCarrier"> <g> <g> <circle cx="24.16" cy="28.531" r="7.236"/> <path d="M31.397,64.561V48.285c6.472-0.21,12.735-1.745,18.597-4.765c3.89-2.004,0.457-7.858-3.424-5.857 c-5.029,2.591-10.369,3.739-15.893,3.854c-0.936-1.632-2.691-2.734-4.707-2.734h-3.618c-2.998,0-5.428,2.43-5.428,5.427v20.351 c0,1.391,0.527,2.654,1.387,3.615c0.783,9.158,0.456,18.272-4.616,26.33c-2.339,3.715,3.534,7.115,5.857,3.424 c5.371-8.531,6.291-18.196,5.672-27.942h0.208c2.17,6.853,3.106,13.862,3.176,21.104c0.043,4.373,6.826,4.377,6.784,0 c-0.082-8.596-1.273-17.041-4.181-25.146C31.327,65.502,31.397,65.04,31.397,64.561z"/> <polygon points="0,4.741 0,55.741 14.875,55.741 14.875,51.741 4,51.741 4,8.741 100.262,8.741 100.262,51.741 33.348,51.741 33.348,55.741 104.262,55.741 104.262,4.741 "/> <rect x="33.348" y="58.408" width="70.914" height="4"/> <rect y="58.408" width="14.875" height="4"/> <path d="M72.641,47.697c2.016,0,3.936-0.629,5.574-1.809c1.639,1.18,3.559,1.809,5.574,1.809c5.283,0,9.583-4.299,9.583-9.583 c0-5.284-4.3-9.583-9.583-9.583c-2.016,0-3.936,0.629-5.574,1.809c-1.639-1.18-3.559-1.809-5.574-1.809 c-5.283,0-9.583,4.299-9.583,9.583C63.058,43.398,67.357,47.697,72.641,47.697z M83.789,29.268c4.877,0,8.846,3.969,8.846,8.846 s-3.969,8.846-8.846,8.846c-1.785,0-3.493-0.53-4.967-1.538c2.168-1.828,3.4-4.465,3.4-7.309c0-2.843-1.232-5.48-3.4-7.309 C80.296,29.798,82.004,29.268,83.789,29.268z M81.486,38.114c0,2.678-1.193,5.149-3.271,6.84c-2.077-1.691-3.271-4.163-3.271-6.84 c0-2.677,1.194-5.148,3.271-6.84C80.293,32.965,81.486,35.437,81.486,38.114z M72.641,29.268c1.785,0,3.494,0.53,4.967,1.537 c-2.168,1.829-3.4,4.465-3.4,7.309c0,2.844,1.232,5.48,3.4,7.309c-1.473,1.007-3.182,1.538-4.967,1.538 c-4.877,0-8.846-3.969-8.846-8.846C63.795,33.237,67.764,29.268,72.641,29.268z"/> <path d="M62.631,15.614c-0.553,0-1,0.448-1,1v6.984c-7.141-4.221-16.118-4.234-24.076-4.234c-0.553,0-1,0.448-1,1 c0,0.552,0.447,1,1,1c7.684,0,16.352,0.012,23.021,3.935l-6.287,2.293c-0.52,0.189-0.786,0.763-0.598,1.282 c0.148,0.406,0.531,0.658,0.939,0.658c0.113,0,0.229-0.02,0.343-0.061l7.999-2.917c0.395-0.144,0.657-0.519,0.657-0.939v-1.5v-7.5 C63.631,16.062,63.184,15.614,62.631,15.614z"/> </g> </g> </g>
</svg>